REM MD5 389713fdeb99259482d4d91f722be640
FILE "Dengeki PlayStation D19 (Japan).bin" BINARY
  TRACK 01 MODE2/2352
    INDEX 01 00:00:00
  TRACK 02 AUDIO
    INDEX 00 53:28:45
    INDEX 01 53:30:45
  TRACK 03 AUDIO
    INDEX 00 54:38:04
    INDEX 01 54:40:04
  TRACK 04 AUDIO
    INDEX 00 56:37:51
    INDEX 01 56:39:51
  TRACK 05 AUDIO
    INDEX 00 59:23:11
    INDEX 01 59:25:11
REM LEADOUT 62:55:11
